<svg version="1.2" xmlns="http://www.w3.org/2000/svg" viewBox="0 -0.3895999999999731 850.3896 850.3896" width="851" height="851">
	<style>
		.s0 { fill: #184856 } 
		.s1 { fill: #ffffff } 
	</style>
	<g id="Layer 1">
		<path id="Shape 1" fill-rule="evenodd" class="s0" d="m884-13v875h-902v-875z"/>
		<path id="&lt;Path&gt;" fill-rule="evenodd" class="s1" d="m546.41 609.43h10.02c5.18-2.8 10.05-23.86-2.5-22.5-9.61 3.67-15.16 14.68-7.52 22.5z"/>
		<path id="&lt;Path&gt;" fill-rule="evenodd" class="s1" d="m621.55 609.43h2.5c15.3-14.67 31.85-37.34 55.11-47.51 8.79-3.84 23.76-0.25 40.07-2.5 13.6-1.87 26.58-9.41 40.07-10 21.35-0.93 43.32 1.08 57.61-15 4.79-8.94-5.12-8.24-5.01-15 0.16-9.37 17.43-18.23 2.51-32.5 0.48-8.69 8.86-9.5 10.01-17.5 3.69-12.51-14.89-13.88-15.03-20-0.16-7.82 10.87-9.36 17.54-17.51v-10c-26.03-17.8-71.71-14.69-107.7-10-0.21-28.12 24.89-96.48-20.04-102.51-10.17 3.18-7.63 19.05-10.02 30.01-9.28 30.84-34.06 47.75-42.57 75-6.39 20.45-2.42 41.42-17.54 60.01-25.49 16.22-54.92 28.51-72.63 52.5 7.15 12.37-5.37 17.15-5.01 30 5.13 7.51 19.18 5.32 25.05 0 1.44 28.49 24.48 15.41 40.07 10-3.09 17.11-30.95 19.35-22.54 40.01 18.31 4.88 24.94-15.02 35.06-10-4.39 2.28-8.7 4.64-7.51 12.5z"/>
		<path id="&lt;Compound Path&gt;" fill-rule="evenodd" class="s1" d="m220.81 254.4h-37.57c-21.96 4.74-38.72 14.68-50.09 30 1.76 19.26-2.66 32.35-7.52 45.01-12.8-11.39-11.58-36.78-22.54-50.01-39.91-11.83-68.41 8.01-80.15 32.5v12.51c11.48 38.84 21.4 91.14 30.06 137.51 8.86 47.44 13.39 96.92 37.57 130.01 15.57-6.13 28.14-15.25 47.59-17.51 12.52-23.5 18.51-40.8 15.03-67.5 11.07 16.4 25.18 52.66 47.58 55 6.38 0.67 43.5-12.16 47.59-15 11.81-8.19 18.47-30.67 20.04-45-22.37-22.05-38.02-44.52-55.1-72.51-6.65-10.89-19.44-25.52-20.04-35-1.82-28.61 66.61-111.8 27.55-140.01zm-127.74 315.02c-23.25-75.13-34.24-162.5-50.09-245.01 12.6 1.74 17.46-4.25 30.05-2.51 11.45 26.09 10.26 64.77 22.55 90.01 20.78-5.92 20.85-32.52 35.06-45 5.63-21.06 14.8-38.57 20.04-60 8.58-4.77 22.47-4.24 32.56-7.51-12.95 38.74-34.9 68.5-42.58 112.51 23.28 26.1 44.01 51.49 65.12 77.51 9.84 12.12 23.35 23.55 27.55 40-8.18 7.67-21.46 10.24-35.06 12.5-33.46-29.11-43.6-81.48-77.64-110.01-8.01 15.12-20.5 23.25-22.55 40.01-3.52 28.92 20.9 59.96 20.04 90-8.79 2.06-15.07 6.62-25.05 7.5z"/>
		<path id="&lt;Compound Path&gt;" fill-rule="evenodd" class="s1" d="m328.51 471.92c3.47-6.55 16.25-3.78 20.03-10 1.67-13.33-1.93-21.41-7.51-27.51-31.17-5.84-54.65 9.17-50.09 35.01 4.14 23.46 37.43 12.85 37.57 40-9.93-0.09-10.37-9.65-15.03-15h-12.52c-13.21 50.09 56.72 39.78 52.59 2.5-1.46-13.26-12.72-17.73-25.04-25zm15.03 37.5c-3.43 13.49-36.8 24.4-40.08-5 9.51 2.17 7.05 16.29 22.54 12.5 28.39-21.11-16.31-32.78-30.05-42.5-6.15-27.84 21.31-40.15 40.07-27.51-2.37 6.23 8.94 15.09-2.5 15.01-9.52-0.51-4.5-15.52-15.03-15.01-7.87-1.18-10.24 3.12-12.52 7.5-5.02 31.94 45.95 21.94 37.57 55.01zm-27.56-57.51c6.99-1.73 10.6 12.44 5.02 15-2.23-4.44-7-6.35-5.02-15z"/>
		<path id="&lt;Compound Path&gt;" fill-rule="evenodd" class="s1" d="m396.13 511.92c15.91 2.54 19.17-7.54 27.56-12.5-4.36-16.49-1.89-39.8-2.51-60.01 5.65-6.86 16.93-8.1 17.53-20-3.36-1.65-4.66-5.34-5.01-10-24.51 0.53-48.18 1.9-62.61 12.5-0.56 8.05 4.43 10.58 2.5 20h15.03c1.92 23.93 4.02 47.66 7.51 70.01zm-2.5-75.01c-8.31 0.8-15.41 0.38-17.53-5-0.81-11.63 17.32-4.37 22.54-10 10.02 4.2 24.92-7.84 25.05 2.5 0.48 11.33-17.47 4.23-20.04 12.5 4.54 12.17 2.32 30.18 2.5 45.01 0.11 8.67 4.73 22.23-2.5 22.5h-5.01c-0.59-23.58-1.7-46.64-5.01-67.51z"/>
		<path id="&lt;Compound Path&gt;" fill-rule="evenodd" class="s1" d="m496.32 509.42c31.81-15.15 40.44-111.02-12.53-102.51-37.35 6-49.71 107.12 12.53 102.51zm-10.02-95.01c33.45 0.92 28.03 98.79-10.02 85.01-28.34-10.27-20.47-85.84 10.02-85.01z"/>
		<path id="&lt;Compound Path&gt;" fill-rule="evenodd" class="s1" d="m486.3 494.42c16.17-9.46 17.38-57.36 5.01-72.51-30.48-4-32.46 71.14-5.01 72.51zm5.01-65.01c2.14 16.96 7.54 48.1-7.52 55.01-3.42-15.68-6.66-48.97 7.52-55.01z"/>
		<path id="&lt;Compound Path&gt;" fill-rule="evenodd" class="s1" d="m561.44 489.42c4.46-5.55 9.86-10.16 7.52-22.51 10.62-2.73 21.58-5.11 27.54-12.5 14.18-36.34-18.9-69.36-47.59-47.5-0.25 30.92-6.96 59.81-2.5 82.51zm-5.01-80.01c11.94-0.25 18.71 4.66 27.55 7.5 9.54 24.79-3.28 45.93-25.05 47.51-2.06 6.27 4.87 21.52-5.01 20h-5.01c5.98-21.54-1.75-56.76 7.52-75.01z"/>
		<path id="&lt;Compound Path&gt;" fill-rule="evenodd" class="s1" d="m558.93 456.91c8.13 1.45 11.66-1.7 17.54-2.5 7.84-15.14 7.29-41.33-15.03-40-3.29 11.72-2.57 27.43-2.51 42.5zm10.03-32.5c11.05 0.07 6.33 16.91 0 20z"/>
		<path id="&lt;Compound Path&gt;" fill-rule="evenodd" class="s1" d="m280.92 416.91c11.37-13.37 19.8-19.67 15.03-45 13.17 6.01 11.03 27.32 20.03 37.5 12.17-0.36 21.1-3.94 30.06-7.5 13.89-24.24-8.74-38.7-17.53-55 6.93-12.69 19.86-15.32 22.54-27.51 11.32-51.45-64.81-78.79-100.18-45-1.26 51.26 2.25 97.76 7.51 142.51zm-20.04-137.51c40.92-11.78 84.8 6.11 67.62 52.51-4.56 6.27-17.11 4.58-17.53 15 4.21 20.79 19.89 30.15 25.05 50-7.66-1.82-7.37 4.31-15.03 2.5-8.95-16.06-13.27-36.76-25.05-50-8.1 1.07-21.66-3.29-22.54 5 0.92 11.43 8.42 44.63-2.5 50h-5.01c1.13-47.21-7.27-82.75-5.01-125.01z"/>
		<path id="&lt;Compound Path&gt;" fill-rule="evenodd" class="s1" d="m376.1 381.91c6.2-3.81 19.42-0.62 25.04-5 12.15-6.21 2.67-34.01 22.55-32.5 8.16 6.01 3.82 24.51 10.01 32.5 19.51 3.63 22.02-9.7 30.06-17.5-3.67-27.2-17-64.09-27.55-92.51-10.35-2.87-19.71-2.87-30.06 0-18.76 29.6-22.22 74.49-30.05 115.01zm30.05-105.01h15.03c5.12 23.07 16.96 50.55 22.54 72.51 1.42 5.59 8.86 19.33 0 22.5-14.58-1.28-4.48-27.2-15.03-32.5-13.35-0.13-22.31 0.26-27.55 2.49-4.49 10.52-6.18 23.83-10.02 35.01h-7.51c3.48-27.52 11.77-71.48 22.54-100.01z"/>
		<path id="&lt;Compound Path&gt;" fill-rule="evenodd" class="s1" d="m611.53 379.41c49.87 12.26 59.97-102.35 12.52-102.51-40.8-0.14-54.88 92.09-12.52 102.51zm7.51-95.01c34.07-0.12 28.38 100.33-10.01 87.51-30.59-10.21-19.22-87.41 10.01-87.51z"/>
		<path id="&lt;Compound Path&gt;" fill-rule="evenodd" class="s1" d="m496.32 379.41c14.85-1.01 25.79-5.92 27.55-20 6.37 3.64 4.85 15.16 12.52 17.5 14.61 1.24 22.39-4.32 27.55-12.5-5.78-15.06-13.99-27.71-20.03-42.51 7.17-16.17 21.52-25.17 22.54-47.5-10.63-3.02-21.94-3.02-32.56 0-4.02 4.32-1.22 15.46-7.52 17.5-4.91-4.26-0.79-17.54-7.51-20-15.87-2.5-22.82 3.89-27.55 12.5 5.97 27.37-1.36 68.03 5.01 95.01zm2.51-75.01c0.48-5.18-4.65-16.71 2.5-17.5 18.03 2.77 3.14 26.89 10.02 32.5 17.52-5 12.49-32.53 35.06-32.5-4.18 15-18.22 20.15-20.04 37.51 8.67 13.84 18.85 26.18 22.55 45-22.1 7.55-18.99-28.54-30.06-40-19.36 3.44-8.73 24.2-10.02 42.5h-10.01c-4.22-21.39-1.6-50.56 0-67.51z"/>
		<path id="&lt;Compound Path&gt;" fill-rule="evenodd" class="s1" d="m616.54 366.91c17.23-9.05 21.4-58.28 7.51-75.01-26.94 0.04-34.99 63.99-7.51 75.01zm7.51-67.51c4.47 16.63 5.57 50.19-7.51 57.51-7.25-16.8-5.52-47 7.51-57.51z"/>
		<path id="&lt;Compound Path&gt;" fill-rule="evenodd" class="s1" d="m313.48 294.4c-14.64-4.03-23.82-10.53-37.57-5-5.88 14.1-1.36 37.5 2.51 50.01 28.26 2.53 43.8-18.69 35.06-45.01zm-22.54 2.5c11.84-0.98 18.05 3.65 17.53 15-1.46 7.72-9.05 9.3-15.03 12.5 0.32-10.31-4.35-15.65-2.5-27.5z"/>
		<path id="&lt;Compound Path&gt;" fill-rule="evenodd" class="s1" d="m401.14 336.91c9.52-0.51 17.82-2.22 25.05-5.01-6.57-13.44-2.25-37.76-17.53-42.5-1.33 17.01-7.86 28.83-7.52 47.51zm15.03-20c0.68 3.4-1.55 9.75-2.51 5-0.68-3.41 1.56-9.77 2.51-5z"/>
	</g>
</svg>